<?xml version="1.0" encoding="UTF-8" standalone="no"?>
<!DOCTYPE svg PUBLIC "-//W3C//DTD SVG 1.1//EN" "http://www.w3.org/Graphics/SVG/1.1/DTD/svg11.dtd">
<!-- Generated by graphviz version 2.40.1 (20161225.0304)
 -->
<!-- Title: G Pages: 1 -->
<svg width="194pt" height="195pt" viewBox="0.00 0.00 194.47 194.86" xmlns="http://www.w3.org/2000/svg" xmlns:xlink="http://www.w3.org/1999/xlink">
<g id="graph0" class="graph" transform="scale(1 1) rotate(0) translate(4 190.8619)">
<title>G</title>
<polygon fill="#ffffff" stroke="transparent" points="-4,4 -4,-190.8619 190.4666,-190.8619 190.4666,4 -4,4"/>
<!-- v1 -->
<g id="node1" class="node">
<title>v1</title>
<ellipse fill="none" stroke="#000000" cx="21.2333" cy="-165.2333" rx="21.4691" ry="21.4691"/>
<text text-anchor="middle" x="21.2333" y="-161.0333" font-family="Helvetica,sans-Serif" font-size="14.00" fill="#000000">v1</text>
</g>
<!-- v2 -->
<g id="node2" class="node">
<title>v2</title>
<ellipse fill="none" stroke="#000000" cx="165.2333" cy="-165.2333" rx="21.4691" ry="21.4691"/>
<text text-anchor="middle" x="165.2333" y="-161.0333" font-family="Helvetica,sans-Serif" font-size="14.00" fill="#000000">v2</text>
</g>
<!-- v1&#45;&gt;v2 -->
<g id="edge1" class="edge">
<title>v1-&gt;v2</title>
<path fill="none" stroke="#000000" d="M42.1721,-170.1614C66.3808,-172.3147 106.4567,-172.5593 134.269,-170.8949"/>
<polygon fill="#000000" stroke="#000000" points="134.5511,-174.3838 144.2692,-170.1636 134.0405,-167.4024 134.5511,-174.3838"/>
<text text-anchor="middle" x="92.9356" y="-174.2619" font-family="Times,serif" font-size="14.00" fill="#000000">4.0</text>
</g>
<!-- v3 -->
<g id="node3" class="node">
<title>v3</title>
<ellipse fill="none" stroke="#000000" cx="93.2333" cy="-21.2333" rx="21.4691" ry="21.4691"/>
<text text-anchor="middle" x="93.2333" y="-17.0333" font-family="Helvetica,sans-Serif" font-size="14.00" fill="#000000">v3</text>
</g>
<!-- v1&#45;&gt;v3 -->
<g id="edge2" class="edge">
<title>v1-&gt;v3</title>
<path fill="none" stroke="#000000" d="M30.7943,-146.1112C43.1667,-121.3664 64.8245,-78.0508 79.0989,-49.502"/>
<polygon fill="#000000" stroke="#000000" points="82.291,-50.944 83.6327,-40.4345 76.03,-47.8135 82.291,-50.944"/>
<text text-anchor="middle" x="69.0513" y="-94.4357" font-family="Times,serif" font-size="14.00" fill="#000000">3.0</text>
</g>
<!-- v2&#45;&gt;v1 -->
<g id="edge4" class="edge">
<title>v2-&gt;v1</title>
<path fill="none" stroke="#000000" d="M144.2944,-160.3052C120.0858,-158.1518 80.0099,-157.9073 52.1976,-159.5716"/>
<polygon fill="#000000" stroke="#000000" points="51.9154,-156.0828 42.1974,-160.3029 52.4261,-163.0642 51.9154,-156.0828"/>
<text text-anchor="middle" x="92.6305" y="-145.6747" font-family="Times,serif" font-size="14.00" fill="#000000">0.5</text>
</g>
<!-- v3&#45;&gt;v2 -->
<g id="edge3" class="edge">
<title>v3-&gt;v2</title>
<path fill="none" stroke="#000000" d="M102.7943,-40.3554C115.1667,-65.1001 136.8245,-108.4157 151.0989,-136.9646"/>
<polygon fill="#000000" stroke="#000000" points="148.03,-138.6531 155.6327,-146.0321 154.291,-135.5226 148.03,-138.6531"/>
<text text-anchor="middle" x="116.5601" y="-93.6934" font-family="Times,serif" font-size="14.00" fill="#000000">1.0</text>
</g>
</g>
</svg>