<?xml version="1.0" encoding="UTF-8" standalone="no"?>
<!DOCTYPE svg PUBLIC "-//W3C//DTD SVG 1.1//EN" "http://www.w3.org/Graphics/SVG/1.1/DTD/svg11.dtd">
<!-- Generated by graphviz version 2.40.1 (20161225.0304)
 -->
<!-- Title: G Pages: 1 -->
<svg width="194pt" height="197pt" viewBox="0.00 0.00 194.47 196.89" xmlns="http://www.w3.org/2000/svg" xmlns:xlink="http://www.w3.org/1999/xlink">
<g id="graph0" class="graph" transform="scale(1 1) rotate(0) translate(4 192.8907)">
<title>G</title>
<polygon fill="#ffffff" stroke="transparent" points="-4,4 -4,-192.8907 190.4666,-192.8907 190.4666,4 -4,4"/>
<!-- v1 -->
<g id="node1" class="node">
<title>v1</title>
<ellipse fill="#ffffff" stroke="#000000" cx="21.2333" cy="-167.6574" rx="21.4691" ry="21.4691"/>
<text text-anchor="middle" x="21.2333" y="-163.4574" font-family="Helvetica,sans-Serif" font-size="14.00" fill="#000000">v1</text>
</g>
<!-- v2 -->
<g id="node2" class="node">
<title>v2</title>
<ellipse fill="#ffffff" stroke="#000000" cx="21.2333" cy="-23.6574" rx="21.4691" ry="21.4691"/>
<text text-anchor="middle" x="21.2333" y="-19.4574" font-family="Helvetica,sans-Serif" font-size="14.00" fill="#000000">v2</text>
</g>
<!-- v1&#45;&gt;v2 -->
<g id="edge1" class="edge">
<title>v1-&gt;v2</title>
<path fill="none" stroke="#000000" d="M21.2333,-146.4097C21.2333,-122.3746 21.2333,-82.9872 21.2333,-55.325"/>
<polygon fill="#000000" stroke="#000000" points="24.7334,-54.9922 21.2333,-44.9922 17.7334,-54.9923 24.7334,-54.9922"/>
<text text-anchor="middle" x="9.3291" y="-94.4885" font-family="Times,serif" font-size="14.00" fill="#000000">2.5</text>
</g>
<!-- v3 -->
<g id="node3" class="node">
<title>v3</title>
<ellipse fill="#ffffff" stroke="#000000" cx="165.2333" cy="-23.6574" rx="21.4691" ry="21.4691"/>
<text text-anchor="middle" x="165.2333" y="-19.4574" font-family="Helvetica,sans-Serif" font-size="14.00" fill="#000000">v3</text>
</g>
<!-- v1&#45;&gt;v3 -->
<g id="edge2" class="edge">
<title>v1-&gt;v3</title>
<path fill="none" stroke="#000000" d="M36.3716,-152.519C61.693,-127.1976 112.7755,-76.1152 142.4543,-46.4364"/>
<polygon fill="#000000" stroke="#000000" points="145.2681,-48.5723 149.8643,-39.0263 140.3184,-43.6225 145.2681,-48.5723"/>
<text text-anchor="middle" x="101.1103" y="-104.4542" font-family="Times,serif" font-size="14.00" fill="#000000">1.0</text>
</g>
<!-- v4 -->
<g id="node4" class="node">
<title>v4</title>
<ellipse fill="#ffffff" stroke="#000000" cx="165.2333" cy="-167.6574" rx="21.4691" ry="21.4691"/>
<text text-anchor="middle" x="165.2333" y="-163.4574" font-family="Helvetica,sans-Serif" font-size="14.00" fill="#000000">v4</text>
</g>
<!-- v1&#45;&gt;v4 -->
<g id="edge3" class="edge">
<title>v1-&gt;v4</title>
<path fill="none" stroke="#000000" d="M42.481,-167.6574C66.516,-167.6574 105.9035,-167.6574 133.5657,-167.6574"/>
<polygon fill="#000000" stroke="#000000" points="133.8984,-171.1575 143.8984,-167.6574 133.8984,-164.1575 133.8984,-171.1575"/>
<text text-anchor="middle" x="89.734" y="-173.008" font-family="Times,serif" font-size="14.00" fill="#000000">5.0</text>
</g>
<!-- v2&#45;&gt;v3 -->
<g id="edge4" class="edge">
<title>v2-&gt;v3</title>
<path fill="none" stroke="#000000" d="M42.1721,-28.5855C66.3808,-30.7388 106.4567,-30.9834 134.269,-29.319"/>
<polygon fill="#000000" stroke="#000000" points="134.5511,-32.8078 144.2692,-28.5877 134.0405,-25.8265 134.5511,-32.8078"/>
<text text-anchor="middle" x="91.9484" y="-32.8456" font-family="Times,serif" font-size="14.00" fill="#000000">5.0</text>
</g>
<!-- v3&#45;&gt;v2 -->
<g id="edge5" class="edge">
<title>v3-&gt;v2</title>
<path fill="none" stroke="#000000" d="M144.2944,-18.7293C120.0858,-16.5759 80.0099,-16.3314 52.1976,-17.9957"/>
<polygon fill="#000000" stroke="#000000" points="51.9154,-14.5069 42.1974,-18.727 52.4261,-21.4883 51.9154,-14.5069"/>
<text text-anchor="middle" x="92.1409" y="-4.2" font-family="Times,serif" font-size="14.00" fill="#000000">0.5</text>
</g>
</g>
</svg>