<?xml version="1.0" encoding="UTF-8" standalone="no"?>
<!DOCTYPE svg PUBLIC "-//W3C//DTD SVG 1.1//EN" "http://www.w3.org/Graphics/SVG/1.1/DTD/svg11.dtd">
<!-- Generated by graphviz version 2.40.1 (20161225.0304)
 -->
<!-- Title: G Pages: 1 -->
<svg width="194pt" height="209pt" viewBox="0.00 0.00 194.47 209.08" xmlns="http://www.w3.org/2000/svg" xmlns:xlink="http://www.w3.org/1999/xlink">
<g id="graph0" class="graph" transform="scale(1 1) rotate(0) translate(4 205.0833)">
<title>G</title>
<polygon fill="#ffffff" stroke="transparent" points="-4,4 -4,-205.0833 190.4666,-205.0833 190.4666,4 -4,4"/>
<!-- v1 -->
<g id="node1" class="node">
<title>v1</title>
<ellipse fill="#ffffff" stroke="#000000" cx="21.2333" cy="-179.7423" rx="21.4691" ry="21.4691"/>
<text text-anchor="middle" x="21.2333" y="-175.5423" font-family="Helvetica,sans-Serif" font-size="14.00" fill="#000000">v1</text>
</g>
<!-- v2 -->
<g id="node2" class="node">
<title>v2</title>
<ellipse fill="#ffffff" stroke="#000000" cx="21.2333" cy="-35.7423" rx="21.4691" ry="21.4691"/>
<text text-anchor="middle" x="21.2333" y="-31.5423" font-family="Helvetica,sans-Serif" font-size="14.00" fill="#000000">v2</text>
</g>
<!-- v1&#45;&gt;v2 -->
<g id="edge1" class="edge">
<title>v1-&gt;v2</title>
<path fill="none" stroke="#000000" d="M21.2333,-158.4946C21.2333,-134.4595 21.2333,-95.0721 21.2333,-67.4099"/>
<polygon fill="#000000" stroke="#000000" points="24.7334,-67.0771 21.2333,-57.0772 17.7334,-67.0772 24.7334,-67.0771"/>
<text text-anchor="middle" x="8.2923" y="-101.1735" font-family="Times,serif" font-size="14.00" fill="#000000">e1</text>
</g>
<!-- v3 -->
<g id="node3" class="node">
<title>v3</title>
<ellipse fill="#ffffff" stroke="#000000" cx="165.2333" cy="-35.7423" rx="21.4691" ry="21.4691"/>
<text text-anchor="middle" x="165.2333" y="-31.5423" font-family="Helvetica,sans-Serif" font-size="14.00" fill="#000000">v3</text>
</g>
<!-- v1&#45;&gt;v3 -->
<g id="edge2" class="edge">
<title>v1-&gt;v3</title>
<path fill="none" stroke="#000000" d="M36.3716,-164.604C61.693,-139.2826 112.7755,-88.2001 142.4543,-58.5213"/>
<polygon fill="#000000" stroke="#000000" points="145.2681,-60.6572 149.8643,-51.1112 140.3184,-55.7075 145.2681,-60.6572"/>
<text text-anchor="middle" x="106.8461" y="-108.3476" font-family="Times,serif" font-size="14.00" fill="#000000">e2</text>
</g>
<!-- v4 -->
<g id="node4" class="node">
<title>v4</title>
<ellipse fill="#ffffff" stroke="#000000" cx="165.2333" cy="-179.7423" rx="21.4691" ry="21.4691"/>
<text text-anchor="middle" x="165.2333" y="-175.5423" font-family="Helvetica,sans-Serif" font-size="14.00" fill="#000000">v4</text>
</g>
<!-- v1&#45;&gt;v4 -->
<g id="edge3" class="edge">
<title>v1-&gt;v4</title>
<path fill="none" stroke="#000000" d="M42.481,-179.7423C66.516,-179.7423 105.9035,-179.7423 133.5657,-179.7423"/>
<polygon fill="#000000" stroke="#000000" points="133.8984,-183.2424 143.8984,-179.7423 133.8984,-176.2424 133.8984,-183.2424"/>
<text text-anchor="middle" x="95.6021" y="-188.4833" font-family="Times,serif" font-size="14.00" fill="#000000">e3</text>
</g>
<!-- v2&#45;&gt;v3 -->
<g id="edge4" class="edge">
<title>v2-&gt;v3</title>
<path fill="none" stroke="#000000" d="M40.3554,-45.2623C64.7774,-49.9633 107.2889,-50.4999 135.84,-46.8719"/>
<polygon fill="#000000" stroke="#000000" points="136.6932,-50.281 146.0321,-45.2775 135.6113,-43.3652 136.6932,-50.281"/>
<text text-anchor="middle" x="92.6406" y="-54.2815" font-family="Times,serif" font-size="14.00" fill="#000000">e4</text>
</g>
<!-- v3&#45;&gt;v2 -->
<g id="edge5" class="edge">
<title>v3-&gt;v2</title>
<path fill="none" stroke="#000000" d="M146.1112,-26.2223C121.6892,-21.5213 79.1776,-20.9848 50.6266,-24.6127"/>
<polygon fill="#000000" stroke="#000000" points="49.7733,-21.2036 40.4345,-26.2071 50.8553,-28.1195 49.7733,-21.2036"/>
<text text-anchor="middle" x="92.472" y="-4.2" font-family="Times,serif" font-size="14.00" fill="#000000">e5</text>
</g>
</g>
</svg>